<?xml version="1.0" standalone="no"?>
<!DOCTYPE svg PUBLIC "-//W3C//DTD SVG 20010904//EN"
 "http://www.w3.org/TR/2001/REC-SVG-20010904/DTD/svg10.dtd">
<svg version="1.0" xmlns="http://www.w3.org/2000/svg"
 width="1024.000000pt" height="1024.000000pt" viewBox="0 0 1024.000000 1024.000000"
 preserveAspectRatio="xMidYMid meet">

<g transform="translate(0.000000,1024.000000) scale(0.100000,-0.100000)"
fill="#000000" stroke="none">
<path d="M4555 8041 c-73 -18 -126 -60 -181 -143 -35 -54 -298 -434 -480 -695
-16 -23 -32 -42 -36 -43 -5 0 -8 53 -8 119 0 129 -10 158 -73 205 -27 20 -41
21 -383 24 -336 3 -357 2 -400 -17 -70 -31 -84 -71 -84 -249 0 -155 7 -182 56
-221 22 -17 41 -21 106 -21 l79 0 -3 -72 -3 -72 -213 -1 -212 0 0 185 c0 102
-5 201 -10 221 -6 20 -29 57 -51 83 -66 74 -99 80 -414 71 -215 -5 -267 -10
-300 -24 -48 -21 -108 -86 -124 -132 -6 -19 -12 -117 -13 -219 l-3 -185 -36 3
c-54 5 -156 -16 -208 -43 -61 -31 -146 -122 -179 -192 -27 -57 -27 -62 -30
-289 l-3 -231 -55 -12 c-144 -33 -221 -177 -164 -309 35 -81 117 -142 190
-142 l30 0 2 -1527 3 -1528 31 -65 c36 -76 116 -168 178 -204 100 -58 37 -56
1536 -56 l1376 0 88 -30 c274 -92 647 -130 946 -96 158 19 308 50 464 96 l99
30 1233 0 c868 0 1249 3 1286 11 154 33 261 128 321 286 l22 58 5 1509 5 1509
48 12 c170 43 229 249 108 378 -34 37 -92 67 -131 67 l-30 0 0 188 c0 216 -9
284 -47 361 -59 123 -175 203 -314 218 l-60 6 2 141 c1 78 -3 153 -9 167 -12
31 -65 77 -98 85 -13 3 -38 4 -54 2 l-30 -5 0 100 c0 109 -15 153 -68 192 -26
19 -45 20 -437 23 -458 3 -456 3 -502 -67 -20 -30 -23 -46 -23 -140 l0 -106
-65 0 c-74 -1 -109 -20 -137 -76 -15 -28 -18 -61 -18 -176 l0 -143 -103 0
c-101 0 -104 1 -123 28 -11 15 -79 110 -151 212 -71 102 -206 293 -299 425
-92 132 -192 275 -221 318 -85 125 -100 142 -155 173 l-53 29 -695 2 c-382 1
-708 -2 -725 -6z m1349 -293 c20 -23 96 -126 168 -228 72 -102 154 -213 181
-248 27 -35 47 -65 45 -67 -3 -3 -473 -4 -1045 -3 l-1040 3 71 96 c39 53 114
159 166 235 52 76 114 164 137 196 l43 58 619 0 619 0 36 -42z m2116 -453 l0
-45 -265 0 -265 0 0 45 0 45 265 0 265 0 0 -45z m-4740 -66 l0 -69 -75 0 -75
0 0 71 0 70 75 -2 75 -2 0 -68z m260 -2 l0 -63 -50 0 -50 1 0 63 0 62 50 0 50
0 0 -63z m-1110 -67 l0 -30 -105 0 -105 0 0 -140 0 -140 -90 0 -90 0 0 129 c0
126 1 130 27 161 14 18 36 36 47 40 12 5 87 9 169 9 l147 1 0 -30z m5878 -77
l-3 -28 -192 -3 -193 -2 0 -100 0 -100 -262 -2 c-145 -1 -283 -2 -308 -3 l-45
0 0 40 0 40 168 3 167 2 0 60 0 60 -107 2 c-244 5 -233 3 -233 33 l0 25 506 0
505 0 -3 -27z m-1788 -189 c34 -47 59 -88 57 -90 -2 -2 -599 -3 -1326 -2
l-1322 3 63 87 63 88 1202 0 1202 0 61 -86z m-2915 -286 c-4 -18 -36 -150 -72
-293 -36 -143 -79 -315 -95 -382 l-31 -123 -900 0 -900 0 7 38 c3 20 6 65 6
100 l0 62 753 0 752 0 50 24 c61 28 87 56 116 120 35 81 12 193 -53 253 -80
75 -224 68 -300 -13 -33 -35 -58 -93 -58 -134 l0 -30 -635 0 -635 0 0 113 c0
136 11 178 58 229 67 70 16 67 1030 68 l914 0 -7 -32z m4973 -2 c26 -18 51
-47 67 -79 23 -46 25 -62 25 -174 l0 -123 -489 0 c-269 0 -503 -3 -520 -6 -29
-6 -31 -5 -31 22 0 80 -53 163 -124 195 -49 22 -131 24 -177 5 -72 -30 -129
-121 -129 -204 0 -87 54 -173 133 -211 43 -21 55 -21 690 -21 l647 0 0 -100
c0 -97 -1 -100 -22 -100 -13 0 -358 0 -768 0 l-745 0 -38 132 c-56 200 -177
665 -177 683 0 14 79 15 808 13 l809 -3 41 -29z m-3017 -121 c218 -28 437 -95
667 -205 753 -363 1232 -1102 1232 -1903 0 -234 -31 -439 -97 -637 -35 -106
-119 -297 -128 -289 -2 3 9 45 25 95 55 172 72 281 75 499 l4 200 -15 -95
c-17 -114 -33 -175 -81 -298 -34 -91 -52 -119 -33 -53 5 18 17 105 26 194 24
234 15 527 -20 693 -181 851 -925 1490 -1808 1554 -454 33 -928 -107 -1283
-379 -404 -309 -680 -760 -767 -1251 -18 -105 -22 -161 -21 -345 1 -199 16
-392 38 -460 3 -11 -3 -4 -13 15 -34 60 -74 190 -97 315 l-23 120 -1 -71 c-3
-205 41 -497 98 -666 16 -49 28 -88 25 -88 -11 0 -115 230 -143 315 -144 444
-132 917 35 1345 115 293 295 570 514 790 474 474 1111 689 1791 605z m-72
-550 c127 -19 304 -64 398 -101 472 -187 850 -576 1002 -1030 108 -321 116
-666 25 -1018 -7 -28 -5 -28 32 14 37 41 141 116 150 108 6 -7 -33 -161 -59
-229 -88 -233 -275 -506 -459 -670 -276 -247 -582 -405 -918 -474 -275 -56
-503 -56 -776 0 -436 89 -824 343 -1108 724 -118 159 -230 400 -276 595 -6 27
-9 50 -6 53 10 10 94 -43 135 -86 30 -32 42 -39 37 -24 -20 65 -47 266 -53
388 -19 464 150 914 472 1254 357 377 901 569 1404 496z m-3450 -370 c40 -20
57 -66 41 -105 -22 -54 -48 -60 -264 -60 l-196 0 -6 25 c-3 14 -3 55 1 90 l7
65 194 0 c151 0 201 -3 223 -15z m6629 -72 l-3 -88 -497 0 -496 0 -26 24 c-34
32 -40 56 -26 92 25 59 19 58 558 59 l493 0 -3 -87z m-5994 11 c70 -24 150
-105 170 -174 21 -71 20 -118 -4 -182 -21 -58 -82 -124 -139 -153 -86 -43
-222 -25 -298 40 -59 50 -103 142 -103 214 0 185 193 316 374 255z m134 -1631
c48 -23 112 -87 137 -138 15 -30 20 -60 20 -125 0 -75 -3 -91 -27 -131 -36
-61 -74 -92 -145 -119 -214 -81 -434 139 -353 352 57 152 229 227 368 161z
m666 -842 c48 -55 86 -102 86 -105 0 -3 -436 -6 -970 -6 l-970 0 0 100 0 100
883 3 c485 1 883 3 884 5 1 1 40 -43 87 -97z m5196 -11 l0 -100 -830 0 c-456
0 -830 3 -830 6 0 3 35 48 77 100 l77 94 753 0 753 0 0 -100z m-9 -391 c-14
-45 -67 -94 -118 -108 -38 -11 -1703 -17 -1703 -6 0 2 41 44 91 92 l91 88 822
5 c809 5 821 5 824 -15 2 -10 -1 -36 -7 -56z m-5021 -24 l95 -95 -975 0 c-657
0 -987 4 -1013 11 -71 19 -137 99 -137 167 0 9 200 12 968 12 l967 0 95 -95z"/>
<path d="M5145 5789 c-271 -27 -499 -106 -704 -244 -359 -240 -593 -592 -683
-1027 -30 -142 -32 -525 -5 -662 61 -302 197 -548 425 -770 235 -230 566 -378
927 -417 129 -14 333 -7 457 15 297 54 597 194 801 376 340 304 489 650 490
1140 0 257 -47 482 -144 690 -99 212 -292 443 -494 593 -304 225 -712 342
-1070 306z m358 -306 c48 -17 123 -52 167 -79 79 -47 216 -162 206 -172 -3 -2
-36 11 -73 31 -154 80 -318 122 -483 122 -102 0 -260 -21 -260 -35 0 -3 10
-26 23 -51 19 -38 22 -60 22 -154 0 -102 -2 -115 -31 -175 -61 -129 -172 -208
-305 -218 -86 -6 -150 10 -217 54 l-53 35 -34 -75 c-19 -41 -42 -105 -51 -143
-18 -73 -24 -277 -11 -328 13 -46 -8 -19 -32 41 -72 185 -68 434 10 648 82
224 222 364 464 462 143 59 235 74 415 70 143 -2 162 -5 243 -33z m1066 -984
c85 -337 27 -684 -162 -966 -88 -132 -169 -218 -285 -306 -158 -118 -322 -194
-542 -248 -83 -20 -120 -23 -290 -24 -215 0 -291 11 -455 67 -104 35 -251 111
-345 177 -98 69 -252 228 -315 325 -227 349 -265 755 -106 1147 33 81 38 76
16 -16 -8 -33 -18 -114 -21 -180 -7 -137 18 -317 63 -454 71 -215 232 -458
397 -599 308 -262 799 -340 1190 -190 300 116 522 321 661 611 108 225 149
505 110 757 -7 52 -21 115 -29 139 -27 74 -17 60 40 -54 30 -60 63 -144 73
-186z m-410 53 c93 -182 86 -420 -18 -637 -93 -196 -280 -362 -468 -418 -112
-33 -267 -31 -311 5 -11 9 -3 14 39 25 81 21 236 90 314 140 252 163 414 480
415 811 0 61 2 112 5 112 2 0 13 -17 24 -38z"/>
<path d="M2543 5363 c-13 -2 -36 -18 -53 -34 -25 -26 -30 -39 -30 -78 0 -57
22 -90 75 -115 47 -23 87 -13 131 30 28 29 34 42 34 78 0 51 -27 92 -76 112
-34 14 -41 15 -81 7z"/>
<path d="M2614 3706 c-79 -79 -22 -206 92 -206 51 0 114 64 114 116 0 72 -55
124 -130 124 -34 0 -48 -6 -76 -34z"/>
</g>
</svg>
